<svg aria-hidden="true" style="position:absolute;width:0;height:0" xmlns="http://www.w3.org/2000/svg" overflow="hidden"><defs><symbol id="icon-twitter" viewBox="0 0 39 32"><path d="M26.811.015a8.277 8.277 0 0 1 6.387 2.537l.003.003a13.3 13.3 0 0 0 4.212-1.436l-.07.035L38.348.6a8.157 8.157 0 0 1-2.602 3.79l-.015.012a3.882 3.882 0 0 1-.867.621l-.021.01v.015a14.998 14.998 0 0 0 4.67-1.27l-.094.038v.015a13.234 13.234 0 0 1-2.721 3.123l-.021.017c-.42.339-.842.677-1.262 1a23.448 23.448 0 0 1-.397 5.348l.023-.146c-2.019 9.066-7.37 15.223-15.837 17.87-2.009.597-4.318.941-6.707.941-1.675 0-3.31-.169-4.889-.491l.157.027a30.287 30.287 0 0 1-4.951-1.631l.2.076A19.495 19.495 0 0 1 .638 28.73l.087.05c-.237-.139-.473-.292-.71-.431a14.064 14.064 0 0 0 2.62.09l-.038.002c.796-.123 1.575-.092 2.309-.246a16.55 16.55 0 0 0 4.934-1.798l-.084.043a9.196 9.196 0 0 0 2.2-1.44l-.01.009a7.026 7.026 0 0 1-2.454-.447l.049.016c-2.432-.84-4.308-2.73-5.112-5.114l-.017-.057a8.014 8.014 0 0 0 3.666-.183l-.056.014a5.792 5.792 0 0 1-2.659-1.073l.016.011c-2.296-1.372-3.81-3.845-3.81-6.671 0-.084.001-.168.004-.252v.012c.277.123.553.262.828.385.486.204 1.055.37 1.646.471l.047.007a2.17 2.17 0 0 0 1.119.09l-.013.002h-.04c-.406-.462-1.07-.785-1.479-1.293a8.219 8.219 0 0 1-2.036-5.429c0-.673.081-1.327.232-1.954l-.012.056a9.197 9.197 0 0 1 .892-2.154l-.024.045c.014 0 .026.015.04.015.216.319.457.597.726.843l.004.003c.716.862 1.505 1.62 2.371 2.283l.035.026a23.59 23.59 0 0 0 9.721 4.741l.159.03c1.084.287 2.333.46 3.619.477h.011a7.39 7.39 0 0 1-.224-1.827c0-.703.096-1.383.275-2.028l-.013.053A7.987 7.987 0 0 1 23.982.709l.051-.02a8.701 8.701 0 0 1 1.736-.544l.058-.01c.326-.046.656-.077.984-.123z"/></symbol><symbol id="icon-dot" viewBox="0 0 32 32"><path d="M16 0C7.163 0 0 7.163 0 16s7.163 16 16 16 16-7.163 16-16S24.837 0 16 0zm0 28C9.373 28 4 22.627 4 16S9.373 4 16 4s12 5.373 12 12-5.373 12-12 12z"/></symbol><symbol id="icon-facebook" viewBox="0 0 15 32"><path d="M14.982.013v5.146s-3.793-.375-4.746 1.074c-.52.799-.211 3.123-.257 4.796h5.032c-.425 1.948-.729 3.272-1.043 4.971H9.951v15.988H2.979V16.063H.013v-5.034h2.934c.15-3.685.206-7.332 2.035-9.18C7.038-.237 9.001.013 14.983.013z"/></symbol><symbol id="icon-instagram" viewBox="0 0 32 32"><path d="M27.962 31.988H3.981a3.997 3.997 0 0 1-3.997-3.997V4.01A3.997 3.997 0 0 1 3.981.013h23.981a3.997 3.997 0 0 1 3.997 3.997v23.981a3.997 3.997 0 0 1-3.997 3.997zM15.971 9.805h-.001a6.187 6.187 0 0 0-5.603 3.559l-.016.038a.343.343 0 0 1-.028.064l.001-.001c-.059.137-.11.275-.16.412-.024.062-.05.125-.071.187-.046.137-.084.287-.125.425a4.512 4.512 0 0 0-.052.2c-.032.15-.055.3-.076.462-.009.062-.021.125-.029.187a5.87 5.87 0 0 0-.036.661V16a6.195 6.195 0 1 0 12.39 0 6.56 6.56 0 0 0-.039-.691l.003.029c-.008-.062-.02-.125-.029-.187a5.709 5.709 0 0 0-.076-.462 8.453 8.453 0 0 0-.052-.2c-.035-.137-.072-.287-.125-.425-.021-.062-.047-.125-.071-.187a7.763 7.763 0 0 0-.16-.412.297.297 0 0 1-.027-.06l-.001-.002c-1.004-2.14-3.139-3.596-5.615-3.597zm12.391-4.597v-.003c0-.882-.715-1.596-1.596-1.596h-3.203c-.882 0-1.596.715-1.596 1.596v3.203c0 .882.715 1.596 1.596 1.596h3.203c.882 0 1.596-.715 1.596-1.596v-3.2zm0 8.194h-2.948c.222.778.35 1.671.35 2.594 0 5.408-4.384 9.792-9.792 9.792S6.18 21.404 6.18 15.996c0-.923.128-1.816.366-2.663l-.017.069H3.581v13.393c0 .882.715 1.596 1.596 1.596h21.589c.882 0 1.596-.715 1.596-1.596V13.402z"/></symbol></defs></svg>